<svg width="121" height="100" viewBox="0 0 121 100" fill="none" xmlns="http://www.w3.org/2000/svg">
<path d="M72.1108 85.743H62.9542C61.651 85.743 60.5944 86.777 60.5944 88.0529C60.5944 89.3288 61.651 90.3629 62.9542 90.3629H72.1108C73.524 90.3629 74.6738 91.4881 74.6738 92.8715C74.6738 94.2548 73.5242 95.3801 72.1108 95.3801H47.4619C43.7567 95.3801 40.2724 93.781 37.9029 90.9926L32.0084 84.057C28.8455 80.3353 24.2423 78.1556 19.3169 78.0177V64.3722H28.0055C32.2904 64.3722 36.3475 65.9764 39.4299 68.8891L52.1522 80.9101C53.0516 81.76 53.0936 83.183 52.2457 84.0822C51.3814 84.9984 49.9145 85.0582 48.9754 84.2157L38.9871 75.2531C38.0268 74.3912 36.5339 74.4545 35.6534 75.395C34.7726 76.3355 34.8375 77.7966 35.7983 78.6586L45.7866 87.6211C47.1337 88.8298 48.8383 89.4268 50.5387 89.4268C52.4371 89.4268 54.33 88.6827 55.7137 87.2155C58.2875 84.486 58.1603 80.1664 55.43 77.5864L42.7077 65.5654C38.7408 61.8169 33.5195 59.7525 28.0055 59.7525H18.8586C17.9708 57.6956 15.8885 56.2482 13.4676 56.2482H2.35977C1.05658 56.2482 0 57.2823 0 58.5582V75.4495C0 76.7252 1.05658 77.7594 2.35977 77.7594C3.66297 77.7594 4.71955 76.7254 4.71955 75.4495V60.8679H13.4679C14.0909 60.8679 14.5976 61.3641 14.5976 61.9738V80.4882C14.5976 81.0979 14.0909 81.5941 13.4679 81.5941H11.017C9.7138 81.5941 8.65723 82.6281 8.65723 83.9041C8.65723 85.1797 9.7138 86.214 11.017 86.214H13.4676C15.9211 86.214 18.0251 84.7272 18.8924 82.6261C22.5711 82.6466 26.026 84.2413 28.3803 87.0117L34.2749 93.9473C37.544 97.794 42.3504 100 47.4619 100H72.1108C76.1262 100 79.3931 96.8022 79.3931 92.8715C79.3931 88.9407 76.1262 85.743 72.1108 85.743Z" fill="#128CD0"/>
<path d="M118.47 21.3382C117.167 21.3382 116.11 22.3722 116.11 23.6481V39.1321H107.362C106.739 39.1321 106.232 38.6359 106.232 38.0262V19.5118C106.232 18.9021 106.739 18.4059 107.362 18.4059H109.64C110.943 18.4059 112 17.3718 112 16.0959C112 14.8202 110.943 13.786 109.64 13.786H107.362C104.909 13.786 102.805 15.2728 101.937 17.3739C98.2586 17.3534 94.8038 15.7586 92.4494 12.9883L86.5548 6.05289C83.286 2.20622 78.4794 0 73.3676 0H48.7192C44.7039 0 41.4369 3.19775 41.4369 7.12828C41.4369 11.0588 44.7039 14.2566 48.7192 14.2566H58.7983C60.1015 14.2566 61.1581 13.2225 61.1581 11.9466C61.1581 10.6707 60.1015 9.63667 58.7983 9.63667H48.7192C47.306 9.63667 46.1562 8.51138 46.1562 7.12805C46.1562 5.74495 47.3058 4.61943 48.7192 4.61943H73.3678C77.0733 4.61943 80.5576 6.21853 82.927 9.00692L88.8216 15.9423C91.9843 19.664 96.5877 21.8436 101.513 21.9818V35.6273H92.8245C88.5396 35.6273 84.4825 34.0231 81.4001 31.1105L68.6778 19.0895C67.7784 18.2395 67.7364 16.8167 68.5843 15.9174C69.4486 15.0009 70.9155 14.9413 71.8546 15.7838L81.8431 24.7464C82.8038 25.6083 84.2961 25.545 85.1771 24.6045C86.0576 23.6641 85.9927 22.2029 85.0319 21.341L75.0434 12.3786C72.1925 9.82056 67.7397 10.0028 65.1163 12.7843C62.5425 15.514 62.6697 19.8336 65.4 22.4133L78.1223 34.4343C82.0892 38.1828 87.3105 40.2472 92.8245 40.2472H101.971C102.859 42.3042 104.941 43.7515 107.362 43.7515H118.47C119.774 43.7515 120.83 42.7175 120.83 41.4416V23.6477C120.83 22.3722 119.773 21.3382 118.47 21.3382Z" fill="#128CD0"/>
<path d="M76.1908 78.5634C75.6541 77.4009 74.2594 76.8822 73.0728 77.4073C71.8776 77.9167 71.3311 79.2779 71.8514 80.4473C72.238 81.3166 73.1056 81.8355 74.016 81.8355C74.3306 81.8355 74.6502 81.7736 74.957 81.6428C74.9669 81.6387 74.9981 81.625 75.0077 81.6209C76.1955 81.0958 76.7272 79.7261 76.1908 78.5634Z" fill="#128CD0"/>
<path d="M82.0576 74.6747C81.2861 73.649 79.8033 73.4356 78.7543 74.1873C77.7029 74.9409 77.4745 76.3863 78.2443 77.4155C78.7066 78.0335 79.4231 78.3611 80.15 78.3611C80.6338 78.3611 81.1221 78.216 81.5422 77.915C81.546 77.9124 81.5681 77.8963 81.5717 77.8937C82.6169 77.136 82.8289 75.7 82.0576 74.6747Z" fill="#F2C94C"/>
<path d="M69.592 81.1569C69.3232 79.9129 68.0754 79.1163 66.8034 79.3737C65.5328 79.6206 64.702 80.8254 64.9456 82.0729C65.1618 83.1795 66.1508 83.9495 67.2608 83.9495C67.4075 83.9495 67.5569 83.9358 67.7063 83.9079C67.7217 83.9049 67.7604 83.8972 67.7759 83.894C69.0504 83.6295 69.8617 82.4046 69.592 81.1569Z" fill="#F2C94C"/>
<path d="M86.9847 69.6502C86.0171 68.7959 84.5253 68.871 83.6521 69.8184C83.6406 69.8311 83.6134 69.8611 83.6021 69.8739C82.7506 70.8397 82.8606 72.2984 83.8473 73.1317C84.2931 73.5082 84.8416 73.6926 85.3874 73.6926C86.0428 73.6926 86.6944 73.4269 87.1603 72.9085C88.0292 71.9611 87.9511 70.5034 86.9847 69.6502ZM85.6669 71.5979L85.4044 71.3655L85.6886 71.6164L85.6669 71.5979Z" fill="#128CD0"/>
<path d="M92.9935 57.1314C91.7465 56.7611 90.4273 57.4576 90.0489 58.6785C89.6657 59.8978 90.3647 61.1904 91.6103 61.5655C91.8414 61.6353 92.075 61.6683 92.3049 61.6683C93.3136 61.6683 94.2474 61.0303 94.5594 60.0371L94.5693 60.0055C94.9474 58.7845 94.2406 57.5015 92.9935 57.1314Z" fill="#128CD0"/>
<path d="M96.0154 45.2093C96.0102 45.1799 96.0045 45.1506 95.9982 45.1212C95.7317 43.8728 94.4819 43.0742 93.207 43.3345C91.9366 43.5937 91.1198 44.8098 91.3756 46.0532C91.592 47.1553 92.5787 47.9267 93.6898 47.9267C93.8279 47.9267 93.9681 47.9149 94.1085 47.8902C95.3914 47.6654 96.245 46.4651 96.0154 45.2093Z" fill="#128CD0"/>
<path d="M93.8511 50.2222C92.5571 50.1104 91.4078 51.0494 91.2933 52.32C91.2912 52.3425 91.2879 52.388 91.2865 52.4104C91.21 53.684 92.2024 54.7772 93.5035 54.852C93.5507 54.8548 93.5974 54.8562 93.6441 54.8562C94.8728 54.8562 95.9053 53.9261 95.9957 52.7149C96.1033 51.4489 95.1456 50.334 93.8511 50.2222Z" fill="#F2C94C"/>
<path d="M90.6813 63.7045C89.5485 63.0759 88.1075 63.4654 87.4651 64.5755L87.4323 64.6332C86.8109 65.7546 87.2303 67.1668 88.3756 67.7751C88.7359 67.9663 89.1237 68.0571 89.5058 68.0571C90.3386 68.0571 91.1432 67.6247 91.5691 66.8558L89.5178 65.7142L91.5708 66.8531C92.2134 65.743 91.8153 64.3336 90.6813 63.7045Z" fill="#F2C94C"/>
<path d="M47.8829 19.7139C47.3002 18.5727 45.8821 18.11 44.7172 18.6808L44.6962 18.691C43.5304 19.2616 43.0685 20.6438 43.6514 21.7848C44.0642 22.5931 44.9006 23.0584 45.7676 23.0584C46.125 23.0584 46.4874 22.9794 46.8275 22.813C47.9934 22.2426 48.4656 20.8551 47.8829 19.7139Z" fill="#128CD0"/>
<path d="M54.7112 17.7873C54.4042 16.5478 53.1302 15.7859 51.8617 16.0867C51.8509 16.0893 51.8174 16.0976 51.8065 16.1004C50.5444 16.4187 49.78 17.6794 50.105 18.9146C50.3794 19.957 51.3345 20.6498 52.3845 20.6498C52.579 20.6498 52.7767 20.626 52.974 20.5763C54.2404 20.2758 55.0183 19.0271 54.7112 17.7873Z" fill="#F2C94C"/>
<path d="M41.6462 23.0447C40.8301 22.052 39.3443 21.896 38.329 22.693L39.7919 24.5054L38.3219 22.6984C37.3024 23.4931 37.1341 24.9462 37.9457 25.9442C38.4121 26.5171 39.0995 26.8153 39.7936 26.8153C40.3086 26.8153 40.8275 26.6509 41.262 26.3124L41.2932 26.2879C42.3056 25.4874 42.4623 24.0373 41.6462 23.0447Z" fill="#F2C94C"/>
<path d="M29.0631 39.4792C27.8057 39.1438 26.5086 39.8689 26.1657 41.0998C26.1598 41.1208 26.1485 41.1645 26.1431 41.1857C25.8363 42.4251 26.6141 43.6715 27.88 43.9725C28.0669 44.0168 28.2538 44.0381 28.4379 44.0381C29.4966 44.0381 30.4586 43.3349 30.7267 42.2867C31.0502 41.0651 30.3108 39.8123 29.0631 39.4792Z" fill="#128CD0"/>
<path d="M27.5581 46.2663C26.2537 46.1954 25.1412 47.1654 25.0657 48.4388C25.0638 48.4686 25.0626 48.4982 25.0617 48.5277C25.0235 49.8023 26.048 50.8642 27.3502 50.9024C27.3743 50.9031 27.3979 50.9035 27.4217 50.9035C28.6867 50.9035 29.7319 49.921 29.7787 48.6772C29.8377 47.4161 28.8493 46.3398 27.5581 46.2663Z" fill="#F2C94C"/>
<path d="M32.0339 33.1665C30.8796 32.5737 29.4535 33.0092 28.8481 34.1388L28.8097 34.2132C28.2345 35.3575 28.7169 36.7394 29.8856 37.3029C30.2202 37.4643 30.5749 37.5406 30.9249 37.5406C31.7915 37.5406 32.6258 37.0711 33.0393 36.2626C33.6269 35.1368 33.1804 33.7553 32.0339 33.1665Z" fill="#F2C94C"/>
<path d="M36.2924 27.6092C35.2897 26.7944 33.8019 26.9296 32.9696 27.911C32.9582 27.9246 32.9323 27.956 32.9209 27.9696C32.1119 28.9692 32.2849 30.4196 33.3056 31.212C33.7389 31.5486 34.2558 31.7117 34.7693 31.7117C35.4615 31.7117 36.1478 31.415 36.6139 30.8463C37.4314 29.8651 37.2898 28.4199 36.2924 27.6092Z" fill="#128CD0"/>
<path d="M30.2261 55.0887C29.9965 53.8329 28.7695 52.9973 27.4873 53.2223C26.2044 53.4473 25.3508 54.6475 25.5804 55.9033L25.5847 55.9259C25.789 57.0425 26.7795 57.818 27.8984 57.818C28.0379 57.818 28.1793 57.806 28.3213 57.781C29.6042 57.5562 30.456 56.3445 30.2261 55.0887Z" fill="#128CD0"/>
<path d="M68.5177 37.5533C65.4462 37.5533 62.6002 38.7932 60.5723 40.8855C58.5441 38.7932 55.6984 37.5533 52.6268 37.5533C46.5845 37.5533 41.6688 42.3652 41.6688 48.2799C41.6688 51.4714 43.1068 54.4751 45.6136 56.521C45.6287 56.5335 45.6443 56.5457 45.6598 56.558L59.1074 66.9796C59.5365 67.3123 60.0543 67.4784 60.572 67.4784C61.0922 67.4784 61.6123 67.3107 62.0423 66.9752L76.0596 56.0458C76.1283 55.9924 76.1937 55.9351 76.2557 55.8746C78.3323 53.8474 79.4757 51.1503 79.4757 48.2799C79.4757 42.3652 74.5601 37.5533 68.5177 37.5533ZM73.0084 52.5193L60.568 62.2193L48.6146 52.9557C47.1995 51.7904 46.3884 50.0881 46.3884 48.2804C46.3881 44.9128 49.1869 42.1732 52.6268 42.1732C55.1594 42.1732 57.4224 43.6538 58.3923 45.945C58.7579 46.8079 59.6181 47.3706 60.5723 47.3706C61.5264 47.3706 62.3867 46.8081 62.7522 45.945C63.7222 43.6538 65.9852 42.1732 68.5177 42.1732C71.9577 42.1732 74.7564 44.9128 74.7564 48.2801C74.7564 49.8746 74.1364 51.3753 73.0084 52.5193Z" fill="#F2C94C"/>
<path d="M2.36213 86.2052C3.66084 86.2052 4.71365 85.1746 4.71365 83.9034C4.71365 82.6321 3.66084 81.6015 2.36213 81.6015C1.06343 81.6015 0.0106201 82.6321 0.0106201 83.9034C0.0106201 85.1746 1.06343 86.2052 2.36213 86.2052Z" fill="#F2C94C"/>
<path d="M118.474 18.3975C119.773 18.3975 120.825 17.367 120.825 16.0957C120.825 14.8244 119.773 13.7938 118.474 13.7938C117.175 13.7938 116.122 14.8244 116.122 16.0957C116.122 17.367 117.175 18.3975 118.474 18.3975Z" fill="#F2C94C"/>
</svg>
